<svg xmlns="http://www.w3.org/2000/svg" xmlns:xlink="http://www.w3.org/1999/xlink" width="120" zoomAndPan="magnify" viewBox="0 0 90 30.000001" height="40" preserveAspectRatio="xMidYMid meet" version="1.0"><path fill="#1d1d1b" d="M 39.507812 22.855469 L 39.507812 20.898438 C 38.894531 21.636719 38.203125 22.207031 37.449219 22.578125 C 36.679688 22.949219 35.851562 23.148438 34.945312 23.148438 C 33.332031 23.148438 31.964844 22.5625 30.828125 21.390625 C 29.691406 20.21875 29.121094 18.800781 29.121094 17.117188 C 29.121094 15.484375 29.691406 14.066406 30.84375 12.910156 C 31.996094 11.738281 33.378906 11.148438 34.992188 11.148438 C 35.929688 11.148438 36.773438 11.351562 37.527344 11.75 C 38.277344 12.152344 38.9375 12.753906 39.523438 13.539062 L 39.523438 11.445312 L 40.96875 11.445312 L 40.96875 22.839844 L 39.507812 22.839844 Z M 38.292969 13.910156 C 37.433594 13.03125 36.359375 12.585938 35.097656 12.585938 C 34.285156 12.585938 33.53125 12.785156 32.839844 13.1875 C 32.148438 13.585938 31.609375 14.15625 31.195312 14.882812 C 30.796875 15.609375 30.582031 16.378906 30.582031 17.179688 C 30.582031 17.984375 30.78125 18.753906 31.195312 19.476562 C 31.609375 20.21875 32.164062 20.773438 32.855469 21.191406 C 33.546875 21.589844 34.285156 21.808594 35.082031 21.808594 C 35.882812 21.808594 36.636719 21.605469 37.355469 21.207031 C 38.078125 20.804688 38.632812 20.25 39.015625 19.554688 C 39.398438 18.863281 39.601562 18.089844 39.601562 17.226562 C 39.601562 15.902344 39.167969 14.789062 38.292969 13.910156 Z M 17.632812 22.855469 L 17.632812 20.898438 C 17.015625 21.636719 16.324219 22.207031 15.574219 22.578125 C 14.804688 22.949219 13.972656 23.148438 13.066406 23.148438 C 11.453125 23.148438 10.085938 22.5625 8.949219 21.390625 C 7.8125 20.21875 7.246094 18.800781 7.246094 17.117188 C 7.246094 15.484375 7.8125 14.066406 8.964844 12.910156 C 10.117188 11.738281 11.5 11.148438 13.113281 11.148438 C 14.050781 11.148438 14.894531 11.351562 15.648438 11.75 C 16.402344 12.152344 17.0625 12.753906 17.644531 13.539062 L 17.644531 11.445312 L 19.089844 11.445312 L 19.089844 22.839844 L 17.632812 22.839844 Z M 16.433594 13.910156 C 15.574219 13.03125 14.496094 12.585938 13.238281 12.585938 C 12.421875 12.585938 11.671875 12.785156 10.980469 13.1875 C 10.289062 13.585938 9.75 14.15625 9.335938 14.882812 C 8.933594 15.609375 8.71875 16.378906 8.71875 17.179688 C 8.71875 17.984375 8.921875 18.753906 9.335938 19.476562 C 9.75 20.21875 10.304688 20.773438 10.996094 21.191406 C 11.683594 21.589844 12.421875 21.808594 13.222656 21.808594 C 14.019531 21.808594 14.773438 21.605469 15.496094 21.207031 C 16.21875 20.804688 16.769531 20.25 17.15625 19.554688 C 17.539062 18.863281 17.738281 18.089844 17.738281 17.226562 C 17.722656 15.902344 17.292969 14.789062 16.433594 13.910156 Z M 51.96875 22.855469 L 49.910156 22.855469 L 44.179688 17.71875 L 44.179688 22.855469 L 42.71875 22.855469 L 42.71875 7.820312 L 44.179688 7.820312 L 44.179688 16.054688 L 49.449219 11.457031 L 51.597656 11.457031 L 45.34375 16.902344 Z M 30.105469 22.855469 L 28.046875 22.855469 L 22.316406 17.71875 L 22.316406 22.855469 L 20.855469 22.855469 L 20.855469 7.820312 L 22.316406 7.820312 L 22.316406 16.054688 L 27.585938 11.457031 L 29.738281 11.457031 L 23.484375 16.902344 Z M 64.472656 17.273438 C 64.503906 18.597656 64.917969 19.679688 65.730469 20.527344 C 66.546875 21.375 67.558594 21.792969 68.757812 21.792969 C 69.34375 21.792969 69.894531 21.683594 70.449219 21.484375 C 71 21.28125 71.460938 21.019531 71.847656 20.679688 C 72.230469 20.34375 72.644531 19.800781 73.089844 19.0625 L 74.320312 19.710938 C 73.921875 20.511719 73.445312 21.144531 72.921875 21.636719 C 72.382812 22.132812 71.800781 22.5 71.140625 22.746094 C 70.480469 23.011719 69.726562 23.132812 68.898438 23.132812 C 67.039062 23.132812 65.59375 22.515625 64.550781 21.296875 C 63.503906 20.078125 62.980469 18.707031 62.980469 17.164062 C 62.980469 15.714844 63.429688 14.433594 64.304688 13.292969 C 65.425781 11.859375 66.929688 11.136719 68.804688 11.136719 C 70.742188 11.136719 72.292969 11.875 73.445312 13.339844 C 74.273438 14.390625 74.6875 15.683594 74.703125 17.242188 L 64.472656 17.242188 Z M 72.230469 14.125 C 71.863281 13.664062 71.371094 13.277344 70.753906 13 C 70.140625 12.707031 69.496094 12.570312 68.820312 12.570312 C 67.699219 12.570312 66.746094 12.925781 65.945312 13.648438 C 65.363281 14.171875 64.917969 14.960938 64.625 16.007812 L 73.089844 16.007812 C 72.890625 15.222656 72.597656 14.589844 72.230469 14.125 Z M 57.007812 12.539062 C 55.625 12.539062 54.472656 12.984375 53.566406 13.878906 C 52.644531 14.773438 52.199219 15.855469 52.199219 17.132812 C 52.199219 17.96875 52.414062 18.753906 52.828125 19.476562 C 53.242188 20.203125 53.824219 20.773438 54.5625 21.191406 C 55.300781 21.589844 56.113281 21.792969 57.035156 21.792969 C 58.710938 21.792969 60.0625 21.128906 61.125 19.785156 L 62.277344 20.558594 C 61.738281 21.375 61 22.007812 60.09375 22.46875 C 59.171875 22.917969 58.144531 23.148438 56.960938 23.148438 C 55.164062 23.148438 53.671875 22.578125 52.488281 21.4375 C 51.304688 20.296875 50.707031 18.890625 50.707031 17.257812 C 50.707031 16.148438 50.984375 15.128906 51.535156 14.1875 C 52.089844 13.246094 52.859375 12.507812 53.824219 11.96875 C 54.792969 11.445312 55.871094 11.164062 57.066406 11.164062 C 57.820312 11.164062 58.542969 11.273438 59.25 11.503906 C 59.957031 11.738281 60.539062 12.03125 61.03125 12.398438 C 61.523438 12.769531 61.9375 13.246094 62.277344 13.820312 L 61.125 14.542969 C 60.09375 13.21875 58.726562 12.539062 57.007812 12.539062 Z M 55.453125 26.632812 L 54.394531 26.21875 L 55.960938 23.671875 L 57.421875 24.152344 Z M 55.453125 26.632812 " fill-opacity="1" fill-rule="nonzero"/><path fill="#1a75bc" d="M 80.972656 9.640625 L 78.574219 12.042969 C 78.253906 12.367188 77.714844 12.367188 77.378906 12.042969 L 76.179688 10.84375 C 75.855469 10.519531 75.855469 9.976562 76.179688 9.640625 C 76.515625 9.316406 77.054688 9.316406 77.378906 9.640625 L 77.976562 10.242188 L 79.773438 8.4375 C 80.097656 8.097656 80.632812 8.097656 80.972656 8.4375 C 81.308594 8.773438 81.308594 9.300781 80.972656 9.640625 M 78.574219 5.984375 C 76.242188 5.984375 74.335938 7.894531 74.335938 10.242188 M 74.351562 10.242188 C 74.351562 12.585938 76.253906 14.496094 78.589844 14.496094 C 80.925781 14.496094 82.832031 12.585938 82.832031 10.242188 C 82.832031 7.894531 80.925781 5.984375 78.589844 5.984375 " fill-opacity="1" fill-rule="nonzero"/></svg>